<svg version="1.0" xmlns="http://www.w3.org/2000/svg"
 width="19" height="19" viewBox="0 0 512.000000 512.000000"
 preserveAspectRatio="xMidYMid meet">

<g transform="translate(0.000000,512.000000) scale(0.100000,-0.100000)"
fill="#CC9A9A" stroke="none">
<path d="M575 4540 l-250 -250 865 -865 865 -865 -865 -865 -865 -865 253
-252 252 -253 865 865 865 865 865 -865 865 -865 252 253 253 252 -865 865
-865 865 865 865 865 865 -253 252 -252 253 -865 -865 -865 -865 -863 863
c-474 474 -864 862 -867 862 -3 0 -118 -113 -255 -250z"/>
</g>
</svg>